<mxfile host="app.diagrams.net" modified="2022-05-06T08:50:56.231Z" agent="5.0 (Windows NT 10.0; Win64; x64) AppleWebKit/537.36 (KHTML, like Gecko) Chrome/101.0.4951.54 Safari/537.36" etag="dUZqaQD03FUFEHAVNlEP" version="18.0.1" type="github">
  <diagram id="4UekxCFJb7rVKic5ynia" name="Page-1">
    <mxGraphModel dx="964" dy="587" grid="1" gridSize="10" guides="1" tooltips="1" connect="1" arrows="1" fold="1" page="1" pageScale="1" pageWidth="827" pageHeight="1169" math="0" shadow="0">
      <root>
        <mxCell id="0" />
        <mxCell id="1" parent="0" />
        <mxCell id="hbkXXQBcBGL9sfutrZGQ-4" value="" style="endArrow=none;html=1;rounded=0;" edge="1" parent="1">
          <mxGeometry width="50" height="50" relative="1" as="geometry">
            <mxPoint x="200" y="240" as="sourcePoint" />
            <mxPoint x="290" y="240" as="targetPoint" />
          </mxGeometry>
        </mxCell>
        <mxCell id="hbkXXQBcBGL9sfutrZGQ-5" value="" style="endArrow=none;html=1;rounded=0;" edge="1" parent="1">
          <mxGeometry width="50" height="50" relative="1" as="geometry">
            <mxPoint x="240" y="300" as="sourcePoint" />
            <mxPoint x="330" y="300" as="targetPoint" />
            <Array as="points">
              <mxPoint x="240" y="300" />
            </Array>
          </mxGeometry>
        </mxCell>
        <mxCell id="hbkXXQBcBGL9sfutrZGQ-6" value="" style="endArrow=none;html=1;rounded=0;" edge="1" parent="1">
          <mxGeometry width="50" height="50" relative="1" as="geometry">
            <mxPoint x="200" y="240" as="sourcePoint" />
            <mxPoint x="240" y="300" as="targetPoint" />
          </mxGeometry>
        </mxCell>
        <mxCell id="hbkXXQBcBGL9sfutrZGQ-7" value="" style="endArrow=none;html=1;rounded=0;" edge="1" parent="1">
          <mxGeometry width="50" height="50" relative="1" as="geometry">
            <mxPoint x="290" y="240" as="sourcePoint" />
            <mxPoint x="330" y="300" as="targetPoint" />
          </mxGeometry>
        </mxCell>
        <mxCell id="hbkXXQBcBGL9sfutrZGQ-9" value="" style="endArrow=none;html=1;rounded=0;" edge="1" parent="1">
          <mxGeometry width="50" height="50" relative="1" as="geometry">
            <mxPoint x="349" y="240" as="sourcePoint" />
            <mxPoint x="439" y="240" as="targetPoint" />
          </mxGeometry>
        </mxCell>
        <mxCell id="hbkXXQBcBGL9sfutrZGQ-10" value="" style="endArrow=none;html=1;rounded=0;" edge="1" parent="1">
          <mxGeometry width="50" height="50" relative="1" as="geometry">
            <mxPoint x="389" y="300" as="sourcePoint" />
            <mxPoint x="479" y="300" as="targetPoint" />
            <Array as="points">
              <mxPoint x="389" y="300" />
            </Array>
          </mxGeometry>
        </mxCell>
        <mxCell id="hbkXXQBcBGL9sfutrZGQ-11" value="" style="endArrow=none;html=1;rounded=0;" edge="1" parent="1">
          <mxGeometry width="50" height="50" relative="1" as="geometry">
            <mxPoint x="349" y="240" as="sourcePoint" />
            <mxPoint x="389" y="300" as="targetPoint" />
          </mxGeometry>
        </mxCell>
        <mxCell id="hbkXXQBcBGL9sfutrZGQ-12" value="" style="endArrow=none;html=1;rounded=0;" edge="1" parent="1">
          <mxGeometry width="50" height="50" relative="1" as="geometry">
            <mxPoint x="439" y="240" as="sourcePoint" />
            <mxPoint x="479" y="300" as="targetPoint" />
          </mxGeometry>
        </mxCell>
        <mxCell id="hbkXXQBcBGL9sfutrZGQ-17" value="" style="group" vertex="1" connectable="0" parent="1">
          <mxGeometry x="399" y="260" width="30" height="20" as="geometry" />
        </mxCell>
        <mxCell id="hbkXXQBcBGL9sfutrZGQ-13" value="" style="endArrow=none;html=1;rounded=0;" edge="1" parent="hbkXXQBcBGL9sfutrZGQ-17">
          <mxGeometry width="50" height="50" relative="1" as="geometry">
            <mxPoint as="sourcePoint" />
            <mxPoint x="20.76923076923077" as="targetPoint" />
          </mxGeometry>
        </mxCell>
        <mxCell id="hbkXXQBcBGL9sfutrZGQ-14" value="" style="endArrow=none;html=1;rounded=0;" edge="1" parent="hbkXXQBcBGL9sfutrZGQ-17">
          <mxGeometry width="50" height="50" relative="1" as="geometry">
            <mxPoint x="9.23076923076923" y="20" as="sourcePoint" />
            <mxPoint x="30" y="20" as="targetPoint" />
            <Array as="points">
              <mxPoint x="9.23076923076923" y="20" />
            </Array>
          </mxGeometry>
        </mxCell>
        <mxCell id="hbkXXQBcBGL9sfutrZGQ-15" value="" style="endArrow=none;html=1;rounded=0;" edge="1" parent="hbkXXQBcBGL9sfutrZGQ-17">
          <mxGeometry width="50" height="50" relative="1" as="geometry">
            <mxPoint as="sourcePoint" />
            <mxPoint x="9.23076923076923" y="20" as="targetPoint" />
          </mxGeometry>
        </mxCell>
        <mxCell id="hbkXXQBcBGL9sfutrZGQ-16" value="" style="endArrow=none;html=1;rounded=0;" edge="1" parent="hbkXXQBcBGL9sfutrZGQ-17">
          <mxGeometry width="50" height="50" relative="1" as="geometry">
            <mxPoint x="20.76923076923077" as="sourcePoint" />
            <mxPoint x="30" y="20" as="targetPoint" />
          </mxGeometry>
        </mxCell>
        <mxCell id="hbkXXQBcBGL9sfutrZGQ-24" value="&lt;font style=&quot;font-size: 18px;&quot;&gt;...&lt;/font&gt;" style="text;html=1;strokeColor=none;fillColor=none;align=center;verticalAlign=middle;whiteSpace=wrap;rounded=0;" vertex="1" parent="1">
          <mxGeometry x="140" y="160" width="60" height="30" as="geometry" />
        </mxCell>
        <mxCell id="hbkXXQBcBGL9sfutrZGQ-25" value="&lt;font style=&quot;font-size: 18px;&quot;&gt;...&lt;/font&gt;" style="text;html=1;strokeColor=none;fillColor=none;align=center;verticalAlign=middle;whiteSpace=wrap;rounded=0;" vertex="1" parent="1">
          <mxGeometry x="260" y="160" width="60" height="30" as="geometry" />
        </mxCell>
        <mxCell id="hbkXXQBcBGL9sfutrZGQ-26" value="&lt;font style=&quot;font-size: 18px;&quot;&gt;...&lt;/font&gt;" style="text;html=1;strokeColor=none;fillColor=none;align=center;verticalAlign=middle;whiteSpace=wrap;rounded=0;" vertex="1" parent="1">
          <mxGeometry x="310" y="160" width="60" height="30" as="geometry" />
        </mxCell>
        <mxCell id="hbkXXQBcBGL9sfutrZGQ-27" value="" style="group" vertex="1" connectable="0" parent="1">
          <mxGeometry x="360" y="170" width="79" height="20" as="geometry" />
        </mxCell>
        <mxCell id="hbkXXQBcBGL9sfutrZGQ-21" value="" style="ellipse;whiteSpace=wrap;html=1;aspect=fixed;" vertex="1" parent="hbkXXQBcBGL9sfutrZGQ-27">
          <mxGeometry width="20" height="20" as="geometry" />
        </mxCell>
        <mxCell id="hbkXXQBcBGL9sfutrZGQ-22" value="" style="ellipse;whiteSpace=wrap;html=1;aspect=fixed;" vertex="1" parent="hbkXXQBcBGL9sfutrZGQ-27">
          <mxGeometry x="30" width="20" height="20" as="geometry" />
        </mxCell>
        <mxCell id="hbkXXQBcBGL9sfutrZGQ-23" value="" style="ellipse;whiteSpace=wrap;html=1;aspect=fixed;" vertex="1" parent="hbkXXQBcBGL9sfutrZGQ-27">
          <mxGeometry x="59" width="20" height="20" as="geometry" />
        </mxCell>
        <mxCell id="hbkXXQBcBGL9sfutrZGQ-28" value="" style="group" vertex="1" connectable="0" parent="1">
          <mxGeometry x="190" y="170" width="80" height="20" as="geometry" />
        </mxCell>
        <mxCell id="hbkXXQBcBGL9sfutrZGQ-18" value="" style="ellipse;whiteSpace=wrap;html=1;aspect=fixed;" vertex="1" parent="hbkXXQBcBGL9sfutrZGQ-28">
          <mxGeometry x="30" width="20" height="20" as="geometry" />
        </mxCell>
        <mxCell id="hbkXXQBcBGL9sfutrZGQ-19" value="" style="ellipse;whiteSpace=wrap;html=1;aspect=fixed;" vertex="1" parent="hbkXXQBcBGL9sfutrZGQ-28">
          <mxGeometry x="60" width="20" height="20" as="geometry" />
        </mxCell>
        <mxCell id="hbkXXQBcBGL9sfutrZGQ-20" value="" style="ellipse;whiteSpace=wrap;html=1;aspect=fixed;" vertex="1" parent="hbkXXQBcBGL9sfutrZGQ-28">
          <mxGeometry width="20" height="20" as="geometry" />
        </mxCell>
        <mxCell id="hbkXXQBcBGL9sfutrZGQ-29" value="&lt;font style=&quot;font-size: 18px;&quot;&gt;...&lt;/font&gt;" style="text;html=1;strokeColor=none;fillColor=none;align=center;verticalAlign=middle;whiteSpace=wrap;rounded=0;" vertex="1" parent="1">
          <mxGeometry x="429" y="160" width="60" height="30" as="geometry" />
        </mxCell>
        <mxCell id="hbkXXQBcBGL9sfutrZGQ-30" value="" style="endArrow=none;dashed=1;html=1;rounded=0;fontSize=18;entryX=0.5;entryY=1;entryDx=0;entryDy=0;" edge="1" parent="1" target="hbkXXQBcBGL9sfutrZGQ-18">
          <mxGeometry width="50" height="50" relative="1" as="geometry">
            <mxPoint x="200" y="240" as="sourcePoint" />
            <mxPoint x="150" y="250" as="targetPoint" />
          </mxGeometry>
        </mxCell>
        <mxCell id="hbkXXQBcBGL9sfutrZGQ-31" value="" style="endArrow=none;dashed=1;html=1;rounded=0;fontSize=18;entryX=0.5;entryY=1;entryDx=0;entryDy=0;" edge="1" parent="1" target="hbkXXQBcBGL9sfutrZGQ-18">
          <mxGeometry width="50" height="50" relative="1" as="geometry">
            <mxPoint x="290" y="240" as="sourcePoint" />
            <mxPoint x="240" y="200" as="targetPoint" />
          </mxGeometry>
        </mxCell>
        <mxCell id="hbkXXQBcBGL9sfutrZGQ-32" value="" style="endArrow=none;dashed=1;html=1;rounded=0;fontSize=18;" edge="1" parent="1">
          <mxGeometry width="50" height="50" relative="1" as="geometry">
            <mxPoint x="240" y="300" as="sourcePoint" />
            <mxPoint x="230" y="190" as="targetPoint" />
          </mxGeometry>
        </mxCell>
        <mxCell id="hbkXXQBcBGL9sfutrZGQ-33" value="" style="endArrow=none;dashed=1;html=1;rounded=0;fontSize=18;entryX=0.5;entryY=1;entryDx=0;entryDy=0;" edge="1" parent="1" target="hbkXXQBcBGL9sfutrZGQ-18">
          <mxGeometry width="50" height="50" relative="1" as="geometry">
            <mxPoint x="330" y="300" as="sourcePoint" />
            <mxPoint x="260" y="220" as="targetPoint" />
          </mxGeometry>
        </mxCell>
        <mxCell id="hbkXXQBcBGL9sfutrZGQ-34" value="" style="endArrow=none;dashed=1;html=1;rounded=0;fontSize=18;" edge="1" parent="1">
          <mxGeometry width="50" height="50" relative="1" as="geometry">
            <mxPoint x="400" y="260" as="sourcePoint" />
            <mxPoint x="400" y="190" as="targetPoint" />
          </mxGeometry>
        </mxCell>
        <mxCell id="hbkXXQBcBGL9sfutrZGQ-35" value="" style="endArrow=none;dashed=1;html=1;rounded=0;fontSize=18;entryX=0.5;entryY=1;entryDx=0;entryDy=0;" edge="1" parent="1" target="hbkXXQBcBGL9sfutrZGQ-22">
          <mxGeometry width="50" height="50" relative="1" as="geometry">
            <mxPoint x="420" y="260" as="sourcePoint" />
            <mxPoint x="280" y="240" as="targetPoint" />
          </mxGeometry>
        </mxCell>
        <mxCell id="hbkXXQBcBGL9sfutrZGQ-36" value="" style="endArrow=none;dashed=1;html=1;rounded=0;fontSize=18;entryX=0.5;entryY=1;entryDx=0;entryDy=0;" edge="1" parent="1" target="hbkXXQBcBGL9sfutrZGQ-22">
          <mxGeometry width="50" height="50" relative="1" as="geometry">
            <mxPoint x="410" y="280" as="sourcePoint" />
            <mxPoint x="290" y="250" as="targetPoint" />
          </mxGeometry>
        </mxCell>
        <mxCell id="hbkXXQBcBGL9sfutrZGQ-37" value="" style="endArrow=none;dashed=1;html=1;rounded=0;fontSize=18;entryX=0.5;entryY=1;entryDx=0;entryDy=0;" edge="1" parent="1" target="hbkXXQBcBGL9sfutrZGQ-22">
          <mxGeometry width="50" height="50" relative="1" as="geometry">
            <mxPoint x="430" y="280" as="sourcePoint" />
            <mxPoint x="300" y="260" as="targetPoint" />
          </mxGeometry>
        </mxCell>
        <mxCell id="hbkXXQBcBGL9sfutrZGQ-38" value="全连接模型" style="text;html=1;strokeColor=none;fillColor=none;align=center;verticalAlign=middle;whiteSpace=wrap;rounded=0;fontSize=18;" vertex="1" parent="1">
          <mxGeometry x="200" y="310" width="110" height="30" as="geometry" />
        </mxCell>
        <mxCell id="hbkXXQBcBGL9sfutrZGQ-39" value="局部连接模型" style="text;html=1;strokeColor=none;fillColor=none;align=center;verticalAlign=middle;whiteSpace=wrap;rounded=0;fontSize=18;" vertex="1" parent="1">
          <mxGeometry x="370" y="310" width="130" height="30" as="geometry" />
        </mxCell>
      </root>
    </mxGraphModel>
  </diagram>
</mxfile>
